<mxfile host="Electron" agent="Mozilla/5.0 (Windows NT 10.0; Win64; x64) AppleWebKit/537.36 (KHTML, like Gecko) draw.io/24.7.17 Chrome/128.0.6613.36 Electron/32.0.1 Safari/537.36" version="24.7.17">
  <diagram id="ow063_VG-V3vekkZYv4J" name="Page-1">
    <mxGraphModel dx="4556" dy="2064" grid="1" gridSize="10" guides="1" tooltips="1" connect="1" arrows="1" fold="1" page="1" pageScale="1" pageWidth="1100" pageHeight="850" math="0" shadow="0">
      <root>
        <mxCell id="0" />
        <mxCell id="1" parent="0" />
        <mxCell id="7BNNcUpY7Ui7uT_f6B9O-14" value="" style="edgeStyle=orthogonalEdgeStyle;rounded=1;orthogonalLoop=1;jettySize=auto;html=1;labelBackgroundColor=none;strokeColor=#0B4D6A;fontColor=default;" parent="1" source="7BNNcUpY7Ui7uT_f6B9O-2" target="7BNNcUpY7Ui7uT_f6B9O-13" edge="1">
          <mxGeometry relative="1" as="geometry" />
        </mxCell>
        <mxCell id="7BNNcUpY7Ui7uT_f6B9O-2" value="Input Masukkan Pasword" style="shape=parallelogram;perimeter=parallelogramPerimeter;whiteSpace=wrap;html=1;fixedSize=1;labelBackgroundColor=none;fillColor=#09555B;strokeColor=#BAC8D3;fontColor=#EEEEEE;rounded=1;" parent="1" vertex="1">
          <mxGeometry x="1380" y="420" width="120" height="60" as="geometry" />
        </mxCell>
        <mxCell id="7BNNcUpY7Ui7uT_f6B9O-6" value="" style="edgeStyle=orthogonalEdgeStyle;rounded=1;orthogonalLoop=1;jettySize=auto;html=1;labelBackgroundColor=none;strokeColor=#0B4D6A;fontColor=default;" parent="1" source="7BNNcUpY7Ui7uT_f6B9O-3" target="7BNNcUpY7Ui7uT_f6B9O-2" edge="1">
          <mxGeometry relative="1" as="geometry" />
        </mxCell>
        <mxCell id="7BNNcUpY7Ui7uT_f6B9O-3" value="Input Masukkan Username" style="shape=parallelogram;perimeter=parallelogramPerimeter;whiteSpace=wrap;html=1;fixedSize=1;labelBackgroundColor=none;fillColor=#09555B;strokeColor=#BAC8D3;fontColor=#EEEEEE;rounded=1;" parent="1" vertex="1">
          <mxGeometry x="1380" y="330" width="120" height="60" as="geometry" />
        </mxCell>
        <mxCell id="sDF-3lWNw89VGC4_ciGH-3" value="" style="edgeStyle=orthogonalEdgeStyle;rounded=0;orthogonalLoop=1;jettySize=auto;html=1;labelBackgroundColor=none;strokeColor=#0B4D6A;fontColor=default;" parent="1" source="7BNNcUpY7Ui7uT_f6B9O-7" target="sDF-3lWNw89VGC4_ciGH-2" edge="1">
          <mxGeometry relative="1" as="geometry" />
        </mxCell>
        <mxCell id="7BNNcUpY7Ui7uT_f6B9O-7" value="start" style="strokeWidth=2;html=1;shape=mxgraph.flowchart.terminator;whiteSpace=wrap;labelBackgroundColor=none;fillColor=#09555B;strokeColor=#BAC8D3;fontColor=#EEEEEE;rounded=1;" parent="1" vertex="1">
          <mxGeometry x="1392.5" y="10" width="100" height="60" as="geometry" />
        </mxCell>
        <mxCell id="7BNNcUpY7Ui7uT_f6B9O-11" value="" style="edgeStyle=orthogonalEdgeStyle;rounded=1;orthogonalLoop=1;jettySize=auto;html=1;labelBackgroundColor=none;strokeColor=#0B4D6A;fontColor=default;" parent="1" edge="1">
          <mxGeometry relative="1" as="geometry">
            <mxPoint x="1439.9565217391305" y="140" as="sourcePoint" />
            <mxPoint x="1439.9565217391305" y="150" as="targetPoint" />
          </mxGeometry>
        </mxCell>
        <mxCell id="dBrxgmBk9G-msEK50nz_-13" value="" style="edgeStyle=orthogonalEdgeStyle;rounded=1;orthogonalLoop=1;jettySize=auto;html=1;labelBackgroundColor=none;strokeColor=#0B4D6A;fontColor=default;" parent="1" target="dBrxgmBk9G-msEK50nz_-12" edge="1">
          <mxGeometry relative="1" as="geometry">
            <mxPoint x="1439.9565217391305" y="190" as="sourcePoint" />
          </mxGeometry>
        </mxCell>
        <mxCell id="7BNNcUpY7Ui7uT_f6B9O-24" style="edgeStyle=orthogonalEdgeStyle;rounded=1;orthogonalLoop=1;jettySize=auto;html=1;exitX=1;exitY=0.5;exitDx=0;exitDy=0;exitPerimeter=0;entryX=0.5;entryY=1;entryDx=0;entryDy=0;labelBackgroundColor=none;strokeColor=#0B4D6A;fontColor=default;" parent="1" source="7BNNcUpY7Ui7uT_f6B9O-13" target="7BNNcUpY7Ui7uT_f6B9O-16" edge="1">
          <mxGeometry relative="1" as="geometry">
            <mxPoint x="1647.5" y="440" as="targetPoint" />
            <Array as="points">
              <mxPoint x="1637.5" y="480" />
              <mxPoint x="1637.5" y="400" />
            </Array>
          </mxGeometry>
        </mxCell>
        <mxCell id="WnNB0ufm-qWZGkOerOgV-6" value="" style="edgeStyle=orthogonalEdgeStyle;rounded=0;orthogonalLoop=1;jettySize=auto;html=1;labelBackgroundColor=none;strokeColor=#0B4D6A;fontColor=default;" parent="1" source="7BNNcUpY7Ui7uT_f6B9O-13" target="WnNB0ufm-qWZGkOerOgV-2" edge="1">
          <mxGeometry relative="1" as="geometry" />
        </mxCell>
        <mxCell id="WnNB0ufm-qWZGkOerOgV-65" style="edgeStyle=orthogonalEdgeStyle;rounded=0;orthogonalLoop=1;jettySize=auto;html=1;exitX=0.5;exitY=1;exitDx=0;exitDy=0;exitPerimeter=0;labelBackgroundColor=none;strokeColor=#0B4D6A;fontColor=default;" parent="1" source="7BNNcUpY7Ui7uT_f6B9O-13" edge="1">
          <mxGeometry relative="1" as="geometry">
            <mxPoint x="1439.571428571429" y="1590" as="targetPoint" />
          </mxGeometry>
        </mxCell>
        <mxCell id="7BNNcUpY7Ui7uT_f6B9O-13" value="user == &quot;dr.fahri&quot;&lt;div&gt;&amp;nbsp;&amp;amp; pass == 3336&lt;/div&gt;" style="strokeWidth=2;html=1;shape=mxgraph.flowchart.decision;whiteSpace=wrap;labelBackgroundColor=none;fillColor=#09555B;strokeColor=#BAC8D3;fontColor=#EEEEEE;rounded=1;" parent="1" vertex="1">
          <mxGeometry x="1373.1200000000001" y="505" width="133.75" height="130" as="geometry" />
        </mxCell>
        <mxCell id="dBrxgmBk9G-msEK50nz_-10" value="" style="edgeStyle=orthogonalEdgeStyle;rounded=1;orthogonalLoop=1;jettySize=auto;html=1;labelBackgroundColor=none;strokeColor=#0B4D6A;fontColor=default;" parent="1" source="7BNNcUpY7Ui7uT_f6B9O-16" edge="1">
          <mxGeometry relative="1" as="geometry">
            <mxPoint x="1637.5" y="410" as="targetPoint" />
          </mxGeometry>
        </mxCell>
        <mxCell id="7BNNcUpY7Ui7uT_f6B9O-16" value="output &quot;anda gagal sebanyak {gagal}" style="shape=parallelogram;perimeter=parallelogramPerimeter;whiteSpace=wrap;html=1;fixedSize=1;labelBackgroundColor=none;fillColor=#09555B;strokeColor=#BAC8D3;fontColor=#EEEEEE;rounded=1;" parent="1" vertex="1">
          <mxGeometry x="1577.5" y="450" width="120" height="60" as="geometry" />
        </mxCell>
        <mxCell id="dBrxgmBk9G-msEK50nz_-15" style="rounded=1;orthogonalLoop=1;jettySize=auto;html=1;exitX=0.5;exitY=0;exitDx=0;exitDy=0;edgeStyle=orthogonalEdgeStyle;labelBackgroundColor=none;strokeColor=#0B4D6A;fontColor=default;" parent="1" edge="1">
          <mxGeometry relative="1" as="geometry">
            <mxPoint x="1457.5" y="280" as="targetPoint" />
            <mxPoint x="1637.5" y="350" as="sourcePoint" />
            <Array as="points">
              <mxPoint x="1637.5" y="315" />
              <mxPoint x="1638.5" y="315" />
            </Array>
          </mxGeometry>
        </mxCell>
        <mxCell id="dBrxgmBk9G-msEK50nz_-2" value="Tidak" style="text;html=1;align=center;verticalAlign=middle;resizable=0;points=[];autosize=1;strokeColor=none;fillColor=none;labelBackgroundColor=none;fontColor=#EEEEEE;rounded=1;" parent="1" vertex="1">
          <mxGeometry x="1500" y="565" width="50" height="30" as="geometry" />
        </mxCell>
        <mxCell id="dBrxgmBk9G-msEK50nz_-16" value="" style="edgeStyle=orthogonalEdgeStyle;rounded=1;orthogonalLoop=1;jettySize=auto;html=1;labelBackgroundColor=none;strokeColor=#0B4D6A;fontColor=default;" parent="1" source="dBrxgmBk9G-msEK50nz_-12" target="7BNNcUpY7Ui7uT_f6B9O-3" edge="1">
          <mxGeometry relative="1" as="geometry" />
        </mxCell>
        <mxCell id="dBrxgmBk9G-msEK50nz_-12" value="while salah &amp;lt; 3" style="verticalLabelPosition=middle;verticalAlign=middle;html=1;shape=hexagon;perimeter=hexagonPerimeter2;arcSize=6;size=0.27;align=center;labelPosition=center;labelBackgroundColor=none;fillColor=#09555B;strokeColor=#BAC8D3;fontColor=#EEEEEE;rounded=1;" parent="1" vertex="1">
          <mxGeometry x="1390" y="210" width="100" height="60" as="geometry" />
        </mxCell>
        <mxCell id="dBrxgmBk9G-msEK50nz_-40" value="gagal += 1" style="rounded=1;whiteSpace=wrap;html=1;absoluteArcSize=1;arcSize=14;strokeWidth=2;labelBackgroundColor=none;fillColor=#09555B;strokeColor=#BAC8D3;fontColor=#EEEEEE;" parent="1" vertex="1">
          <mxGeometry x="1570" y="350" width="162.5" height="60" as="geometry" />
        </mxCell>
        <mxCell id="sDF-3lWNw89VGC4_ciGH-1" value="user = &quot;dr.fahri&quot;" style="rounded=1;whiteSpace=wrap;html=1;absoluteArcSize=1;arcSize=14;strokeWidth=2;fillColor=#09555B;strokeColor=#BAC8D3;labelBackgroundColor=none;fontColor=#EEEEEE;" parent="1" vertex="1">
          <mxGeometry x="1381.25" y="90" width="127.5" height="40" as="geometry" />
        </mxCell>
        <mxCell id="sDF-3lWNw89VGC4_ciGH-4" value="" style="edgeStyle=orthogonalEdgeStyle;rounded=0;orthogonalLoop=1;jettySize=auto;html=1;labelBackgroundColor=none;strokeColor=#0B4D6A;fontColor=default;" parent="1" source="sDF-3lWNw89VGC4_ciGH-2" target="dBrxgmBk9G-msEK50nz_-12" edge="1">
          <mxGeometry relative="1" as="geometry" />
        </mxCell>
        <mxCell id="sDF-3lWNw89VGC4_ciGH-2" value="pass = &quot;3336&quot;" style="rounded=1;whiteSpace=wrap;html=1;absoluteArcSize=1;arcSize=14;strokeWidth=2;fillColor=#09555B;strokeColor=#BAC8D3;labelBackgroundColor=none;fontColor=#EEEEEE;" parent="1" vertex="1">
          <mxGeometry x="1377.5" y="140" width="130" height="40" as="geometry" />
        </mxCell>
        <mxCell id="BMUwDCnW8Ut4nbrkXiIB-1" value="&lt;font color=&quot;#000000&quot; style=&quot;font-size: 14px;&quot;&gt;yes&lt;/font&gt;" style="text;html=1;align=center;verticalAlign=middle;whiteSpace=wrap;rounded=0;labelBackgroundColor=none;fontColor=#EEEEEE;" parent="1" vertex="1">
          <mxGeometry x="1326.25" y="540" width="60" height="30" as="geometry" />
        </mxCell>
        <mxCell id="BMUwDCnW8Ut4nbrkXiIB-2" value="no" style="text;html=1;align=center;verticalAlign=middle;whiteSpace=wrap;rounded=0;labelBackgroundColor=none;fontColor=#EEEEEE;" parent="1" vertex="1">
          <mxGeometry x="1517.5" y="540" width="60" height="30" as="geometry" />
        </mxCell>
        <mxCell id="WnNB0ufm-qWZGkOerOgV-2" value="&lt;font style=&quot;font-size: 16px;&quot;&gt;login berhasil&lt;/font&gt;" style="rounded=1;whiteSpace=wrap;html=1;absoluteArcSize=1;arcSize=14;strokeWidth=2;labelBackgroundColor=none;fillColor=#09555B;strokeColor=#BAC8D3;fontColor=#EEEEEE;" parent="1" vertex="1">
          <mxGeometry x="1150" y="520" width="160" height="100" as="geometry" />
        </mxCell>
        <mxCell id="Xq2KbLmmlqhMLaFqcAf8-1" style="edgeStyle=orthogonalEdgeStyle;rounded=0;orthogonalLoop=1;jettySize=auto;html=1;exitX=0;exitY=0.5;exitDx=0;exitDy=0;labelBackgroundColor=none;strokeColor=#0B4D6A;fontColor=default;" parent="1" source="WnNB0ufm-qWZGkOerOgV-7" edge="1">
          <mxGeometry relative="1" as="geometry">
            <mxPoint x="230" y="570" as="targetPoint" />
          </mxGeometry>
        </mxCell>
        <mxCell id="2GlJDG4ceJ929ZNw-_GK-1" value="" style="edgeStyle=orthogonalEdgeStyle;rounded=0;orthogonalLoop=1;jettySize=auto;html=1;" parent="1" source="WnNB0ufm-qWZGkOerOgV-7" target="WnNB0ufm-qWZGkOerOgV-16" edge="1">
          <mxGeometry relative="1" as="geometry" />
        </mxCell>
        <mxCell id="WnNB0ufm-qWZGkOerOgV-7" value="&lt;font style=&quot;font-size: 17px;&quot;&gt;selamat datang doktah&lt;/font&gt;&lt;div style=&quot;text-align: justify; font-size: 17px;&quot;&gt;&lt;font style=&quot;font-size: 17px;&quot;&gt;1.lihat pack&lt;/font&gt;&lt;/div&gt;&lt;div style=&quot;text-align: justify; font-size: 17px;&quot;&gt;&lt;font style=&quot;font-size: 17px;&quot;&gt;2.tambah pack&lt;/font&gt;&lt;/div&gt;&lt;div style=&quot;text-align: justify; font-size: 17px;&quot;&gt;&lt;font style=&quot;font-size: 17px;&quot;&gt;3. edit pack&lt;/font&gt;&lt;/div&gt;&lt;div style=&quot;text-align: justify; font-size: 17px;&quot;&gt;&lt;font style=&quot;font-size: 17px;&quot;&gt;4.hapus pack&lt;/font&gt;&lt;/div&gt;&lt;div style=&quot;text-align: justify; font-size: 17px;&quot;&gt;&lt;font style=&quot;font-size: 17px;&quot;&gt;5.log out&lt;/font&gt;&lt;/div&gt;&lt;div style=&quot;text-align: justify; font-size: 17px;&quot;&gt;&lt;font style=&quot;font-size: 17px;&quot;&gt;silahkan dipilih doktah&lt;/font&gt;&lt;/div&gt;" style="rounded=1;whiteSpace=wrap;html=1;absoluteArcSize=1;arcSize=14;strokeWidth=2;align=center;labelBackgroundColor=none;fillColor=#09555B;strokeColor=#BAC8D3;fontColor=#EEEEEE;" parent="1" vertex="1">
          <mxGeometry x="430" y="475" width="310" height="190" as="geometry" />
        </mxCell>
        <mxCell id="WnNB0ufm-qWZGkOerOgV-34" value="" style="edgeStyle=orthogonalEdgeStyle;rounded=0;orthogonalLoop=1;jettySize=auto;html=1;labelBackgroundColor=none;strokeColor=#0B4D6A;fontColor=default;" parent="1" source="WnNB0ufm-qWZGkOerOgV-9" target="WnNB0ufm-qWZGkOerOgV-24" edge="1">
          <mxGeometry relative="1" as="geometry" />
        </mxCell>
        <mxCell id="WnNB0ufm-qWZGkOerOgV-9" value="&lt;font style=&quot;font-size: 13px;&quot;&gt;1. lihat pack&lt;/font&gt;" style="strokeWidth=2;html=1;shape=mxgraph.flowchart.decision;whiteSpace=wrap;labelBackgroundColor=none;fillColor=#09555B;strokeColor=#BAC8D3;fontColor=#EEEEEE;" parent="1" vertex="1">
          <mxGeometry x="5" y="235" width="100" height="100" as="geometry" />
        </mxCell>
        <mxCell id="WnNB0ufm-qWZGkOerOgV-33" value="" style="edgeStyle=orthogonalEdgeStyle;rounded=0;orthogonalLoop=1;jettySize=auto;html=1;labelBackgroundColor=none;strokeColor=#0B4D6A;fontColor=default;" parent="1" source="WnNB0ufm-qWZGkOerOgV-15" target="WnNB0ufm-qWZGkOerOgV-28" edge="1">
          <mxGeometry relative="1" as="geometry" />
        </mxCell>
        <mxCell id="WnNB0ufm-qWZGkOerOgV-15" value="&lt;span style=&quot;font-size: 13px;&quot;&gt;2. tambah pack&lt;/span&gt;" style="strokeWidth=2;html=1;shape=mxgraph.flowchart.decision;whiteSpace=wrap;labelBackgroundColor=none;fillColor=#09555B;strokeColor=#BAC8D3;fontColor=#EEEEEE;" parent="1" vertex="1">
          <mxGeometry x="5" y="415" width="100" height="100" as="geometry" />
        </mxCell>
        <mxCell id="Xq2KbLmmlqhMLaFqcAf8-14" style="edgeStyle=orthogonalEdgeStyle;rounded=0;orthogonalLoop=1;jettySize=auto;html=1;exitX=0.5;exitY=1;exitDx=0;exitDy=0;exitPerimeter=0;entryX=0.5;entryY=0;entryDx=0;entryDy=0;labelBackgroundColor=none;strokeColor=#0B4D6A;fontColor=default;" parent="1" source="WnNB0ufm-qWZGkOerOgV-16" target="WnNB0ufm-qWZGkOerOgV-25" edge="1">
          <mxGeometry relative="1" as="geometry" />
        </mxCell>
        <mxCell id="WnNB0ufm-qWZGkOerOgV-16" value="&lt;span style=&quot;font-size: 13px;&quot;&gt;5. log out&lt;/span&gt;" style="strokeWidth=2;html=1;shape=mxgraph.flowchart.decision;whiteSpace=wrap;labelBackgroundColor=none;fillColor=#09555B;strokeColor=#BAC8D3;fontColor=#EEEEEE;" parent="1" vertex="1">
          <mxGeometry x="535" y="780" width="100" height="100" as="geometry" />
        </mxCell>
        <mxCell id="Xq2KbLmmlqhMLaFqcAf8-3" value="" style="edgeStyle=orthogonalEdgeStyle;rounded=0;orthogonalLoop=1;jettySize=auto;html=1;labelBackgroundColor=none;strokeColor=#0B4D6A;fontColor=default;" parent="1" source="WnNB0ufm-qWZGkOerOgV-17" target="WnNB0ufm-qWZGkOerOgV-26" edge="1">
          <mxGeometry relative="1" as="geometry" />
        </mxCell>
        <mxCell id="WnNB0ufm-qWZGkOerOgV-17" value="&lt;span style=&quot;font-size: 13px;&quot;&gt;4. hapus pack&lt;/span&gt;" style="strokeWidth=2;html=1;shape=mxgraph.flowchart.decision;whiteSpace=wrap;labelBackgroundColor=none;fillColor=#09555B;strokeColor=#BAC8D3;fontColor=#EEEEEE;" parent="1" vertex="1">
          <mxGeometry x="5" y="805" width="100" height="100" as="geometry" />
        </mxCell>
        <mxCell id="Xq2KbLmmlqhMLaFqcAf8-2" value="" style="edgeStyle=orthogonalEdgeStyle;rounded=0;orthogonalLoop=1;jettySize=auto;html=1;labelBackgroundColor=none;strokeColor=#0B4D6A;fontColor=default;" parent="1" source="WnNB0ufm-qWZGkOerOgV-18" target="WnNB0ufm-qWZGkOerOgV-27" edge="1">
          <mxGeometry relative="1" as="geometry" />
        </mxCell>
        <mxCell id="WnNB0ufm-qWZGkOerOgV-18" value="&lt;span style=&quot;font-size: 13px;&quot;&gt;3. edit pack&lt;/span&gt;" style="strokeWidth=2;html=1;shape=mxgraph.flowchart.decision;whiteSpace=wrap;labelBackgroundColor=none;fillColor=#09555B;strokeColor=#BAC8D3;fontColor=#EEEEEE;" parent="1" vertex="1">
          <mxGeometry x="5" y="635" width="100" height="100" as="geometry" />
        </mxCell>
        <mxCell id="Xq2KbLmmlqhMLaFqcAf8-12" style="edgeStyle=orthogonalEdgeStyle;rounded=0;orthogonalLoop=1;jettySize=auto;html=1;exitX=0;exitY=0.5;exitDx=0;exitDy=0;labelBackgroundColor=none;strokeColor=#0B4D6A;fontColor=default;" parent="1" source="WnNB0ufm-qWZGkOerOgV-24" edge="1">
          <mxGeometry relative="1" as="geometry">
            <mxPoint x="-410" y="465" as="targetPoint" />
          </mxGeometry>
        </mxCell>
        <mxCell id="WnNB0ufm-qWZGkOerOgV-24" value="tampilkan pack" style="rounded=1;whiteSpace=wrap;html=1;absoluteArcSize=1;arcSize=14;strokeWidth=2;labelBackgroundColor=none;fillColor=#09555B;strokeColor=#BAC8D3;fontColor=#EEEEEE;" parent="1" vertex="1">
          <mxGeometry x="-190" y="235" width="100" height="100" as="geometry" />
        </mxCell>
        <mxCell id="Xq2KbLmmlqhMLaFqcAf8-16" style="edgeStyle=orthogonalEdgeStyle;rounded=0;orthogonalLoop=1;jettySize=auto;html=1;exitX=0.5;exitY=1;exitDx=0;exitDy=0;entryX=0.5;entryY=0;entryDx=0;entryDy=0;labelBackgroundColor=none;strokeColor=#0B4D6A;fontColor=default;" parent="1" source="WnNB0ufm-qWZGkOerOgV-25" target="WnNB0ufm-qWZGkOerOgV-59" edge="1">
          <mxGeometry relative="1" as="geometry" />
        </mxCell>
        <mxCell id="WnNB0ufm-qWZGkOerOgV-25" value="pengguna log out" style="rounded=1;whiteSpace=wrap;html=1;absoluteArcSize=1;arcSize=14;strokeWidth=2;labelBackgroundColor=none;fillColor=#09555B;strokeColor=#BAC8D3;fontColor=#EEEEEE;" parent="1" vertex="1">
          <mxGeometry x="535" y="940" width="100" height="100" as="geometry" />
        </mxCell>
        <mxCell id="Xq2KbLmmlqhMLaFqcAf8-11" style="edgeStyle=orthogonalEdgeStyle;rounded=0;orthogonalLoop=1;jettySize=auto;html=1;exitX=0;exitY=0.5;exitDx=0;exitDy=0;labelBackgroundColor=none;strokeColor=#0B4D6A;fontColor=default;" parent="1" source="WnNB0ufm-qWZGkOerOgV-26" edge="1">
          <mxGeometry relative="1" as="geometry">
            <mxPoint x="-410" y="675" as="targetPoint" />
          </mxGeometry>
        </mxCell>
        <mxCell id="WnNB0ufm-qWZGkOerOgV-26" value="pilih pack yang ingin di hapus" style="rounded=1;whiteSpace=wrap;html=1;absoluteArcSize=1;arcSize=14;strokeWidth=2;labelBackgroundColor=none;fillColor=#09555B;strokeColor=#BAC8D3;fontColor=#EEEEEE;" parent="1" vertex="1">
          <mxGeometry x="-190" y="805" width="100" height="100" as="geometry" />
        </mxCell>
        <mxCell id="Xq2KbLmmlqhMLaFqcAf8-10" style="edgeStyle=orthogonalEdgeStyle;rounded=0;orthogonalLoop=1;jettySize=auto;html=1;exitX=0;exitY=0.5;exitDx=0;exitDy=0;labelBackgroundColor=none;strokeColor=#0B4D6A;fontColor=default;" parent="1" source="WnNB0ufm-qWZGkOerOgV-27" target="Xq2KbLmmlqhMLaFqcAf8-4" edge="1">
          <mxGeometry relative="1" as="geometry" />
        </mxCell>
        <mxCell id="WnNB0ufm-qWZGkOerOgV-27" value="pilih pack yang ingin di edit" style="rounded=1;whiteSpace=wrap;html=1;absoluteArcSize=1;arcSize=14;strokeWidth=2;labelBackgroundColor=none;fillColor=#09555B;strokeColor=#BAC8D3;fontColor=#EEEEEE;" parent="1" vertex="1">
          <mxGeometry x="-190" y="635" width="100" height="100" as="geometry" />
        </mxCell>
        <mxCell id="Xq2KbLmmlqhMLaFqcAf8-7" style="edgeStyle=orthogonalEdgeStyle;rounded=0;orthogonalLoop=1;jettySize=auto;html=1;exitX=0;exitY=0.5;exitDx=0;exitDy=0;labelBackgroundColor=none;strokeColor=#0B4D6A;fontColor=default;" parent="1" source="WnNB0ufm-qWZGkOerOgV-28" target="Xq2KbLmmlqhMLaFqcAf8-4" edge="1">
          <mxGeometry relative="1" as="geometry" />
        </mxCell>
        <mxCell id="WnNB0ufm-qWZGkOerOgV-28" value="masukkan nama dan harga baru pack" style="rounded=1;whiteSpace=wrap;html=1;absoluteArcSize=1;arcSize=14;strokeWidth=2;labelBackgroundColor=none;fillColor=#09555B;strokeColor=#BAC8D3;fontColor=#EEEEEE;" parent="1" vertex="1">
          <mxGeometry x="-190" y="415" width="100" height="100" as="geometry" />
        </mxCell>
        <mxCell id="WnNB0ufm-qWZGkOerOgV-36" style="edgeStyle=orthogonalEdgeStyle;rounded=0;orthogonalLoop=1;jettySize=auto;html=1;exitX=0.5;exitY=1;exitDx=0;exitDy=0;exitPerimeter=0;labelBackgroundColor=none;strokeColor=#0B4D6A;fontColor=default;" parent="1" edge="1">
          <mxGeometry relative="1" as="geometry">
            <mxPoint x="-460" y="665" as="sourcePoint" />
            <mxPoint x="-460" y="665" as="targetPoint" />
          </mxGeometry>
        </mxCell>
        <mxCell id="WnNB0ufm-qWZGkOerOgV-45" value="" style="edgeStyle=orthogonalEdgeStyle;rounded=0;orthogonalLoop=1;jettySize=auto;html=1;exitX=0;exitY=0.5;exitDx=0;exitDy=0;labelBackgroundColor=none;strokeColor=#0B4D6A;fontColor=default;" parent="1" source="WnNB0ufm-qWZGkOerOgV-2" target="WnNB0ufm-qWZGkOerOgV-44" edge="1">
          <mxGeometry relative="1" as="geometry">
            <mxPoint x="1150" y="570" as="sourcePoint" />
            <mxPoint x="870" y="570" as="targetPoint" />
          </mxGeometry>
        </mxCell>
        <mxCell id="WnNB0ufm-qWZGkOerOgV-46" value="" style="edgeStyle=orthogonalEdgeStyle;rounded=0;orthogonalLoop=1;jettySize=auto;html=1;labelBackgroundColor=none;strokeColor=#0B4D6A;fontColor=default;" parent="1" source="WnNB0ufm-qWZGkOerOgV-44" target="WnNB0ufm-qWZGkOerOgV-7" edge="1">
          <mxGeometry relative="1" as="geometry" />
        </mxCell>
        <mxCell id="WnNB0ufm-qWZGkOerOgV-44" value="while true" style="verticalLabelPosition=middle;verticalAlign=middle;html=1;shape=hexagon;perimeter=hexagonPerimeter2;arcSize=6;size=0.27;align=center;labelPosition=center;labelBackgroundColor=none;fillColor=#09555B;strokeColor=#BAC8D3;fontColor=#EEEEEE;rounded=1;" parent="1" vertex="1">
          <mxGeometry x="810" y="540" width="100" height="60" as="geometry" />
        </mxCell>
        <mxCell id="WnNB0ufm-qWZGkOerOgV-55" value="kembali" style="text;html=1;align=center;verticalAlign=middle;whiteSpace=wrap;rounded=0;labelBackgroundColor=none;fontColor=#EEEEEE;" parent="1" vertex="1">
          <mxGeometry x="-100.09090909090924" y="292.5" width="60" height="30" as="geometry" />
        </mxCell>
        <mxCell id="WnNB0ufm-qWZGkOerOgV-64" style="edgeStyle=orthogonalEdgeStyle;rounded=0;orthogonalLoop=1;jettySize=auto;html=1;exitX=1;exitY=0.5;exitDx=0;exitDy=0;labelBackgroundColor=none;strokeColor=#0B4D6A;fontColor=default;" parent="1" source="WnNB0ufm-qWZGkOerOgV-59" edge="1">
          <mxGeometry relative="1" as="geometry">
            <mxPoint x="1380" y="1640.2857142857147" as="targetPoint" />
          </mxGeometry>
        </mxCell>
        <mxCell id="WnNB0ufm-qWZGkOerOgV-59" value="output&quot;program berhenti&quot;" style="shape=parallelogram;perimeter=parallelogramPerimeter;whiteSpace=wrap;html=1;fixedSize=1;labelBackgroundColor=none;fillColor=#09555B;strokeColor=#BAC8D3;fontColor=#EEEEEE;" parent="1" vertex="1">
          <mxGeometry x="524.9990909090907" y="1610" width="120" height="60" as="geometry" />
        </mxCell>
        <mxCell id="WnNB0ufm-qWZGkOerOgV-62" value="end" style="strokeWidth=2;html=1;shape=mxgraph.flowchart.terminator;whiteSpace=wrap;labelBackgroundColor=none;fillColor=#09555B;strokeColor=#BAC8D3;fontColor=#EEEEEE;" parent="1" vertex="1">
          <mxGeometry x="1386.25" y="1600" width="100" height="60" as="geometry" />
        </mxCell>
        <mxCell id="Xq2KbLmmlqhMLaFqcAf8-17" style="edgeStyle=orthogonalEdgeStyle;rounded=0;orthogonalLoop=1;jettySize=auto;html=1;exitX=0;exitY=0.5;exitDx=0;exitDy=0;labelBackgroundColor=none;strokeColor=#0B4D6A;fontColor=default;" parent="1" source="Xq2KbLmmlqhMLaFqcAf8-4" target="Xq2KbLmmlqhMLaFqcAf8-18" edge="1">
          <mxGeometry relative="1" as="geometry">
            <mxPoint x="-740" y="165" as="targetPoint" />
          </mxGeometry>
        </mxCell>
        <mxCell id="Xq2KbLmmlqhMLaFqcAf8-4" value="kembali ke menu utama jika sudah selelsai" style="rounded=1;whiteSpace=wrap;html=1;absoluteArcSize=1;arcSize=14;strokeWidth=2;labelBackgroundColor=none;fillColor=#09555B;strokeColor=#BAC8D3;fontColor=#EEEEEE;" parent="1" vertex="1">
          <mxGeometry x="-460" y="525" width="100" height="100" as="geometry" />
        </mxCell>
        <mxCell id="Xq2KbLmmlqhMLaFqcAf8-19" style="edgeStyle=orthogonalEdgeStyle;rounded=0;orthogonalLoop=1;jettySize=auto;html=1;exitX=1;exitY=0.5;exitDx=0;exitDy=0;labelBackgroundColor=none;strokeColor=#0B4D6A;fontColor=default;" parent="1" source="Xq2KbLmmlqhMLaFqcAf8-18" edge="1">
          <mxGeometry relative="1" as="geometry">
            <mxPoint x="780" y="566.1538461538463" as="targetPoint" />
          </mxGeometry>
        </mxCell>
        <mxCell id="Xq2KbLmmlqhMLaFqcAf8-18" value="kembali" style="text;html=1;align=center;verticalAlign=middle;whiteSpace=wrap;rounded=0;labelBackgroundColor=none;fontColor=#EEEEEE;" parent="1" vertex="1">
          <mxGeometry x="-770" y="150" width="60" height="30" as="geometry" />
        </mxCell>
        <mxCell id="Xq2KbLmmlqhMLaFqcAf8-20" value="pilih menu" style="rounded=1;whiteSpace=wrap;html=1;absoluteArcSize=1;arcSize=14;strokeWidth=2;strokeColor=#BAC8D3;fontColor=#EEEEEE;fillColor=#09555B;labelBackgroundColor=none;" parent="1" vertex="1">
          <mxGeometry x="200" y="515" width="100" height="100" as="geometry" />
        </mxCell>
        <mxCell id="Xq2KbLmmlqhMLaFqcAf8-23" style="edgeStyle=orthogonalEdgeStyle;rounded=0;orthogonalLoop=1;jettySize=auto;html=1;exitX=0.5;exitY=0;exitDx=0;exitDy=0;entryX=1;entryY=0.5;entryDx=0;entryDy=0;entryPerimeter=0;strokeColor=#0B4D6A;labelBackgroundColor=none;fontColor=default;" parent="1" source="Xq2KbLmmlqhMLaFqcAf8-20" target="WnNB0ufm-qWZGkOerOgV-9" edge="1">
          <mxGeometry relative="1" as="geometry" />
        </mxCell>
        <mxCell id="Xq2KbLmmlqhMLaFqcAf8-24" style="edgeStyle=orthogonalEdgeStyle;rounded=0;orthogonalLoop=1;jettySize=auto;html=1;exitX=0.5;exitY=0;exitDx=0;exitDy=0;entryX=0.9;entryY=0.45;entryDx=0;entryDy=0;entryPerimeter=0;strokeColor=#0B4D6A;labelBackgroundColor=none;fontColor=default;" parent="1" source="Xq2KbLmmlqhMLaFqcAf8-20" target="WnNB0ufm-qWZGkOerOgV-15" edge="1">
          <mxGeometry relative="1" as="geometry" />
        </mxCell>
        <mxCell id="Xq2KbLmmlqhMLaFqcAf8-25" style="edgeStyle=orthogonalEdgeStyle;rounded=0;orthogonalLoop=1;jettySize=auto;html=1;exitX=0.5;exitY=1;exitDx=0;exitDy=0;entryX=1;entryY=0.5;entryDx=0;entryDy=0;entryPerimeter=0;strokeColor=#0B4D6A;labelBackgroundColor=none;fontColor=default;" parent="1" source="Xq2KbLmmlqhMLaFqcAf8-20" target="WnNB0ufm-qWZGkOerOgV-17" edge="1">
          <mxGeometry relative="1" as="geometry" />
        </mxCell>
        <mxCell id="Xq2KbLmmlqhMLaFqcAf8-26" style="edgeStyle=orthogonalEdgeStyle;rounded=0;orthogonalLoop=1;jettySize=auto;html=1;exitX=0.5;exitY=1;exitDx=0;exitDy=0;entryX=1;entryY=0.5;entryDx=0;entryDy=0;entryPerimeter=0;strokeColor=#0B4D6A;labelBackgroundColor=none;fontColor=default;" parent="1" source="Xq2KbLmmlqhMLaFqcAf8-20" target="WnNB0ufm-qWZGkOerOgV-18" edge="1">
          <mxGeometry relative="1" as="geometry" />
        </mxCell>
        <mxCell id="Xq2KbLmmlqhMLaFqcAf8-27" value="&lt;font style=&quot;font-size: 16px;&quot; color=&quot;#000000&quot;&gt;yes&lt;/font&gt;" style="text;html=1;align=center;verticalAlign=middle;whiteSpace=wrap;rounded=0;fontColor=#EEEEEE;labelBackgroundColor=none;" parent="1" vertex="1">
          <mxGeometry x="-60" y="250" width="60" height="30" as="geometry" />
        </mxCell>
        <mxCell id="Xq2KbLmmlqhMLaFqcAf8-28" value="&lt;font style=&quot;font-size: 16px;&quot; color=&quot;#000000&quot;&gt;yes&lt;/font&gt;" style="text;html=1;align=center;verticalAlign=middle;whiteSpace=wrap;rounded=0;fontColor=#EEEEEE;labelBackgroundColor=none;" parent="1" vertex="1">
          <mxGeometry x="-55" y="820" width="60" height="30" as="geometry" />
        </mxCell>
        <mxCell id="Xq2KbLmmlqhMLaFqcAf8-29" value="&lt;font style=&quot;font-size: 16px;&quot; color=&quot;#000000&quot;&gt;yes&lt;/font&gt;" style="text;html=1;align=center;verticalAlign=middle;whiteSpace=wrap;rounded=0;fontColor=#EEEEEE;labelBackgroundColor=none;" parent="1" vertex="1">
          <mxGeometry x="-60" y="650" width="60" height="30" as="geometry" />
        </mxCell>
        <mxCell id="Xq2KbLmmlqhMLaFqcAf8-30" value="&lt;font style=&quot;font-size: 16px;&quot; color=&quot;#000000&quot;&gt;yes&lt;/font&gt;" style="text;html=1;align=center;verticalAlign=middle;whiteSpace=wrap;rounded=0;fontColor=#EEEEEE;labelBackgroundColor=none;" parent="1" vertex="1">
          <mxGeometry x="-60" y="430" width="60" height="30" as="geometry" />
        </mxCell>
        <mxCell id="Xq2KbLmmlqhMLaFqcAf8-31" value="&lt;font color=&quot;#000000&quot;&gt;&lt;span style=&quot;font-size: 14px;&quot;&gt;no&lt;/span&gt;&lt;/font&gt;" style="text;html=1;align=center;verticalAlign=middle;whiteSpace=wrap;rounded=0;labelBackgroundColor=none;fontColor=#EEEEEE;" parent="1" vertex="1">
          <mxGeometry x="1500" y="535" width="60" height="30" as="geometry" />
        </mxCell>
        <mxCell id="bBu6_snDVaDfxjEzEFxi-1" value="" style="endArrow=classic;html=1;rounded=0;" edge="1" parent="1">
          <mxGeometry width="50" height="50" relative="1" as="geometry">
            <mxPoint x="1330" y="335" as="sourcePoint" />
            <mxPoint x="1396.25" y="335" as="targetPoint" />
          </mxGeometry>
        </mxCell>
        <mxCell id="bBu6_snDVaDfxjEzEFxi-2" value="" style="endArrow=classic;html=1;rounded=0;" edge="1" parent="1">
          <mxGeometry width="50" height="50" relative="1" as="geometry">
            <mxPoint x="1326.25" y="425" as="sourcePoint" />
            <mxPoint x="1392.5" y="425" as="targetPoint" />
          </mxGeometry>
        </mxCell>
        <mxCell id="bBu6_snDVaDfxjEzEFxi-3" value="" style="endArrow=classic;html=1;rounded=0;" edge="1" parent="1">
          <mxGeometry width="50" height="50" relative="1" as="geometry">
            <mxPoint x="1680" y="505" as="sourcePoint" />
            <mxPoint x="1746.25" y="505" as="targetPoint" />
          </mxGeometry>
        </mxCell>
        <mxCell id="bBu6_snDVaDfxjEzEFxi-5" value="" style="endArrow=classic;html=1;rounded=0;" edge="1" parent="1">
          <mxGeometry width="50" height="50" relative="1" as="geometry">
            <mxPoint x="610" y="1670" as="sourcePoint" />
            <mxPoint x="676.25" y="1670" as="targetPoint" />
          </mxGeometry>
        </mxCell>
      </root>
    </mxGraphModel>
  </diagram>
</mxfile>
